:SAMPLES-PER-SECOND 30
:FULLY-SPECIFIED
:DEGREES
300
root  -6.4404 37.2793 11.6754 172.037 40.8658 173.14
RightUpLeg  -21.1987 -7.7076 -19.9678
RightLeg  33.9022 -4.04171 -3.15552
RightFoot  -0.382268 -2.01909 20.855
RightToes  -1.39699e-009 0 -3.6325e-017
Spine  14.9531 0.0235634 -11.7555
Spine1  19.5676 -3.02602 2.72217
HEad  -22.8041 35.1322 -18.6901
LeftShoulder1  1.15581 -1.70754 -15.3585
LeftArm  17.3945 0.496973 -57.3529
LeftForeArm  124.75 -76.4554 -130.643
LeftHand  -3.03346 -5.04479 33.1627
RightShoulder  0.590202 -0.473014 12.521
RightArm  -0.366497 -17.056 63.2018
RightForeArm  157.331 62.2761 159.965
RightHand  -1.24863 5.3061 -13.7901
LeftUpLeg  -6.94103 -5.68047 0.0320239
LeftLeg  36.0506 -1.19384 -0.548923
LeftFoot  -22.8808 -1.01058 -11.3184
LeftToes  3.40148e-010 1.80944e-010 1.01921e-010
301
root  -6.68643 37.2894 11.9329 172.139 41.4046 173.325
RightUpLeg  -20.5219 -7.63724 -19.2593
RightLeg  36.5393 -3.21062 -2.81291
RightFoot  -2.91351 -1.61572 21.4249
RightToes  -1.39699e-009 0 -3.6325e-017
Spine  14.5075 0.31137 -11.6361
Spine1  20.2998 -2.55599 2.30348
HEad  -21.6781 34.7497 -17.8895
LeftShoulder1  1.25545 -2.18878 -15.2231
LeftArm  15.6427 -0.450547 -55.6605
LeftForeArm  118.147 -77.3785 -124.983
LeftHand  -2.95497 -4.74159 33.2616
RightShoulder  0.634743 -0.251417 12.5602
RightArm  0.452719 -15.9698 63.0898
RightForeArm  157.582 62.8999 159.485
RightHand  -1.28174 5.49194 -13.9131
LeftUpLeg  -7.3357 -5.52541 0.258422
LeftLeg  35.7768 -1.01206 -0.401881
LeftFoot  -22.863 -1.02976 -11.5302
LeftToes  3.40148e-010 1.80944e-010 1.01921e-010
302
root  -6.7939 37.6066 12.2417 173.09 41.5807 173.761
RightUpLeg  -19.1753 -7.55766 -18.211
RightLeg  36.732 -3.09592 -2.73544
RightFoot  -3.6571 -1.51673 21.9489
RightToes  -1.39699e-009 0 -3.6325e-017
Spine  13.878 0.464344 -11.2063
Spine1  20.3847 -2.12585 2.0127
HEad  -19.88 34.3912 -16.73
LeftShoulder1  1.25254 -2.11237 -15.4984
LeftArm  14.5309 -0.130006 -54.3899
LeftForeArm  115.701 -77.5734 -123.304
LeftHand  -2.88825 -4.60974 32.9601
RightShoulder  0.650371 -0.180362 12.6172
RightArm  1.78685 -15.6619 62.8875
RightForeArm  158.442 62.9964 159.49
RightHand  -1.23838 5.44744 -13.5075
LeftUpLeg  -7.66153 -6.37803 0.710189
LeftLeg  33.6878 -0.0844296 0.308917
LeftFoot  -20.8326 -0.880875 -12.0872
LeftToes  3.40148e-010 1.80944e-010 1.01921e-010
303
root  -6.79928 38.1086 12.6239 174.856 41.3496 174.564
RightUpLeg  -17.5856 -7.02129 -16.7117
RightLeg  35.3968 -3.28579 -2.75931
RightFoot  -3.06369 -1.60626 21.6699
RightToes  -1.39699e-009 0 -3.6325e-017
Spine  13.2817 0.556594 -10.5043
Spine1  20.0647 -1.76629 1.97864
HEad  -18.793 33.9245 -15.7076
LeftShoulder1  1.18382 -1.77693 -15.6175
LeftArm  13.7602 1.0433 -53.9678
LeftForeArm  116.977 -77.4394 -124.34
LeftHand  -2.88833 -4.7131 32.6442
RightShoulder  0.635986 -0.25307 12.6138
RightArm  2.80865 -15.6031 62.9694
RightForeArm  159.241 62.5364 159.946
RightHand  -1.15229 5.22908 -12.8445
LeftUpLeg  -8.36217 -7.90053 1.74744
LeftLeg  30.8086 0.915909 0.954042
LeftFoot  -17.1774 -0.571484 -13.229
LeftToes  3.40148e-010 1.80944e-010 1.01921e-010
304
root  -6.72614 38.6581 13.0863 177.057 40.9645 175.347
RightUpLeg  -16.1283 -6.23809 -14.9676
RightLeg  33.2029 -3.55587 -2.74652
RightFoot  -2.20416 -1.7197 21.1068
RightToes  -1.39699e-009 0 -3.6325e-017
Spine  12.8131 0.750922 -9.94223
Spine1  19.2196 -1.37656 2.13119
HEad  -18.6307 33.339 -14.945
LeftShoulder1  1.08823 -1.42517 -15.2444
LeftArm  13.1117 2.78978 -54.5068
LeftForeArm  118.477 -77.3661 -125.111
LeftHand  -2.89156 -4.82647 32.3369
RightShoulder  0.615846 -0.320775 12.3751
RightArm  3.20662 -15.4631 63.368
RightForeArm  159.094 61.9785 160.373
RightHand  -1.07897 4.98048 -12.3279
LeftUpLeg  -9.47032 -8.53451 3.31938
LeftLeg  27.4656 0.94314 0.889771
LeftFoot  -12.751 -0.105541 -14.7326
LeftToes  3.40148e-010 1.80944e-010 1.01921e-010
305
root  -6.62094 39.1543 13.6044 179.218 40.2515 175.872
RightUpLeg  -14.6188 -5.98144 -13.4234
RightLeg  30.1926 -4.12897 -2.82419
RightFoot  -1.74593 -1.77312 20.7686
RightToes  -1.39699e-009 0 -3.6325e-017
Spine  12.6455 0.910475 -9.54329
Spine1  17.9607 -1.12067 2.40932
HEad  -18.8745 32.5902 -14.3957
LeftShoulder1  1.01299 -1.17963 -14.7555
LeftArm  12.6223 4.69181 -55.2421
LeftForeArm  118.662 -77.3612 -125.184
LeftHand  -2.84416 -4.79692 31.9242
RightShoulder  0.584082 -0.421668 11.9328
RightArm  3.41643 -14.9738 63.7399
RightForeArm  158.268 61.6103 160.577
RightHand  -1.03963 4.7847 -12.109
LeftUpLeg  -10.6925 -7.88668 4.93338
LeftLeg  23.8402 -0.229592 0.235999
LeftFoot  -8.40732 0.457911 -15.9014
LeftToes  3.40148e-010 1.80944e-010 1.01921e-010
306
root  -6.52044 39.4869 14.1394 -178.771 38.7959 176.414
RightUpLeg  -13.0802 -6.9652 -12.1193
RightLeg  26.6402 -4.79727 -2.84093
RightFoot  -2.02084 -1.71047 20.6073
RightToes  -1.39699e-009 0 -3.6325e-017
Spine  12.7484 0.737243 -8.72157
Spine1  16.7469 -1.2236 2.73018
HEad  -19.205 31.5786 -14.0349
LeftShoulder1  1.00372 -1.17898 -14.5404
LeftArm  12.3631 6.30892 -55.5069
LeftForeArm  117.986 -77.3738 -124.94
LeftHand  -2.79093 -4.71198 31.6097
RightShoulder  0.525969 -0.667617 11.4893
RightArm  3.76002 -13.9827 63.6635
RightForeArm  157.691 61.383 160.693
RightHand  -1.01174 4.63115 -11.9649
LeftUpLeg  -12.2216 -6.89634 6.49811
LeftLeg  21.0001 -2.26127 -0.628084
LeftFoot  -4.98881 0.959208 -16.6554
LeftToes  3.40148e-010 1.80944e-010 1.01921e-010
307
root  -6.42984 39.5466 14.678 -177.044 36.9615 177.025
RightUpLeg  -12.3683 -8.9145 -10.8772
RightLeg  23.9401 -5.00419 -2.65053
RightFoot  -3.45516 -1.44017 20.3486
RightToes  -1.39699e-009 0 -3.6325e-017
Spine  12.9718 0.36574 -7.47176
Spine1  15.8257 -1.50648 2.96077
HEad  -19.5539 30.3859 -13.7997
LeftShoulder1  1.0546 -1.42427 -14.5044
LeftArm  12.1706 7.57966 -55.6459
LeftForeArm  116.838 -77.5366 -123.808
LeftHand  -2.78269 -4.69984 31.5571
RightShoulder  0.463438 -0.959322 11.1332
RightArm  4.04604 -12.5397 62.9706
RightForeArm  157.563 61.183 160.831
RightHand  -0.975503 4.50779 -11.686
LeftUpLeg  -14.4796 -6.23201 8.06721
LeftLeg  20.2934 -4.52453 -1.5313
LeftFoot  -3.36492 1.25103 -17.5499
LeftToes  3.40148e-010 1.80944e-010 1.01921e-010
308
root  -6.36254 39.3292 15.2202 -176.099 35.9013 177.452
RightUpLeg  -13.0301 -10.2546 -9.68324
RightLeg  23.6188 -5.09602 -2.66173
RightFoot  -6.12345 -0.944115 19.5747
RightToes  -1.39699e-009 0 -3.6325e-017
Spine  13.4898 0.291913 -6.35732
Spine1  15.2704 -1.51392 3.12086
HEad  -19.9408 29.3191 -13.6732
LeftShoulder1  1.11508 -1.71328 -14.4777
LeftArm  11.7076 8.70292 -56.3205
LeftForeArm  115.05 -77.8788 -121.463
LeftHand  -2.81439 -4.7672 31.6969
RightShoulder  0.4316 -1.0898 10.7659
RightArm  4.07848 -10.6571 61.901
RightForeArm  157.305 61.0477 160.907
RightHand  -0.9575 4.46565 -11.5244
LeftUpLeg  -16.8922 -6.14139 9.4219
LeftLeg  21.7996 -6.01362 -2.31926
LeftFoot  -4.02191 1.22205 -18.6175
LeftToes  3.40148e-010 1.80944e-010 1.01921e-010
309
root  -6.34389 38.9061 15.7548 -176.455 36.1968 177.513
RightUpLeg  -14.5255 -9.6555 -8.79821
RightLeg  26.1545 -5.89611 -3.3874
RightFoot  -9.54657 -0.352719 18.0685
RightToes  -1.39699e-009 0 -3.6325e-017
Spine  14.5008 0.628085 -5.65163
Spine1  15.4558 -1.09321 3.06831
HEad  -20.5406 28.6762 -13.8345
LeftShoulder1  1.16969 -1.92744 -14.6566
LeftArm  10.8112 9.65965 -57.417
LeftForeArm  112.364 -78.2618 -118.359
LeftHand  -2.88306 -4.84419 32.1943
RightShoulder  0.436032 -1.01239 10.3367
RightArm  3.98738 -8.23969 60.9182
RightForeArm  156.643 61.1348 160.78
RightHand  -1.00732 4.57632 -11.974
LeftUpLeg  -18.3785 -6.76319 10.3265
LeftLeg  24.7727 -6.12493 -2.74585
LeftFoot  -6.7756 0.813383 -19.2059
LeftToes  3.40148e-010 1.80944e-010 1.01921e-010
310
root  -6.39238 38.3888 16.2364 -177.91 37.1892 177.378
RightUpLeg  -15.8682 -8.08325 -8.36312
RightLeg  30.3486 -6.76089 -4.50236
RightFoot  -12.8175 0.125364 16.3556
RightToes  -1.39699e-009 0 -3.6325e-017
Spine  15.6783 0.859237 -4.94265
Spine1  16.6981 -0.554022 2.37906
HEad  -21.3876 28.6113 -14.4297
LeftShoulder1  1.25226 -2.14243 -15.3579
LeftArm  9.69106 10.2679 -58.3153
LeftForeArm  108.267 -78.6918 -114.005
LeftHand  -3.0017 -4.89866 33.2707
RightShoulder  0.467082 -0.796039 10.0399
RightArm  3.995 -5.51544 60.261
RightForeArm  155.98 61.5681 160.388
RightHand  -1.1304 4.82035 -13.0853
LeftUpLeg  -18.5989 -7.71706 10.8059
LeftLeg  28.4474 -5.10057 -2.64681
LeftFoot  -10.4384 0.214521 -19.0136
LeftToes  3.40148e-010 1.80944e-010 1.01921e-010
311
root  -6.50093 37.9125 16.596 -179.444 37.9391 177.479
RightUpLeg  -16.7171 -7.40814 -8.14102
RightLeg  34.2914 -6.48267 -4.98582
RightFoot  -15.1511 0.409285 15.2766
RightToes  -1.39699e-009 0 -3.6325e-017
Spine  16.4122 0.562449 -3.82078
Spine1  18.5212 -0.270601 1.13305
HEad  -21.9841 29.128 -15.188
LeftShoulder1  1.36698 -2.36882 -16.5592
LeftArm  8.76037 10.6267 -58.8829
LeftForeArm  102.11 -79.2277 -106.949
LeftHand  -3.13121 -4.94758 34.4635
RightShoulder  0.523754 -0.488437 10.1582
RightArm  4.21578 -3.24985 59.811
RightForeArm  155.897 62.2947 159.81
RightHand  -1.25902 5.07446 -14.1952
LeftUpLeg  -18.1019 -8.33269 11.1505
LeftLeg  32.1761 -3.47041 -1.99938
LeftFoot  -13.4422 -0.261222 -18.4607
LeftToes  3.40148e-010 1.80944e-010 1.01921e-010
312
root  -6.63233 37.611 16.8007 179.705 38.2484 177.909
RightUpLeg  -17.1475 -7.6414 -7.92827
RightLeg  36.6377 -5.54846 -4.69026
RightFoot  -16.2073 0.53376 15.0729
RightToes  -1.39699e-009 0 -3.6325e-017
Spine  16.4256 0.0221806 -2.74569
Spine1  20.0813 -0.313316 0.178532
HEad  -21.7479 29.9928 -15.5495
LeftShoulder1  1.45703 -2.45598 -17.8339
LeftArm  8.40836 11.1018 -59.5765
LeftForeArm  94.9912 -79.6518 -98.2905
LeftHand  -3.20168 -5.01337 34.9795
RightShoulder  0.590215 -0.203733 10.7325
RightArm  4.65026 -2.25852 59.4901
RightForeArm  156.85 63.037 159.296
RightHand  -1.32019 5.28019 -14.5888
LeftUpLeg  -17.3067 -8.4392 11.5196
LeftLeg  35.0911 -1.75855 -0.971036
LeftFoot  -15 -0.484993 -17.8465
LeftToes  3.40148e-010 1.80944e-010 1.01921e-010
313
root  -6.76611 37.5711 16.8761 179.49 38.4181 178.3
RightUpLeg  -17.0619 -7.42284 -7.74539
RightLeg  36.8233 -5.39137 -4.59148
RightFoot  -15.9714 0.514502 15.3402
RightToes  -1.39699e-009 0 -3.6325e-017
Spine  15.9069 -0.238592 -2.46032
Spine1  21.0054 -0.522418 0.182449
HEad  -20.8345 30.7542 -15.2902
LeftShoulder1  1.47243 -2.3362 -18.6562
LeftArm  8.9205 11.9074 -60.6588
LeftForeArm  90.5586 -79.7942 -92.8124
LeftHand  -3.20525 -5.09593 34.7576
RightShoulder  0.625753 -0.130816 11.4834
RightArm  5.19793 -2.88393 59.5032
RightForeArm  158.846 63.4119 159.182
RightHand  -1.3202 5.49541 -14.3125
LeftUpLeg  -16.159 -8.34898 11.6832
LeftLeg  36.2826 -0.524469 -0.0539812
LeftFoot  -15.2603 -0.500543 -17.1579
LeftToes  3.40148e-010 1.80944e-010 1.01921e-010
314
root  -6.9378 37.7925 16.864 179.655 38.5192 178.296
RightUpLeg  -16.4676 -6.27319 -7.82972
RightLeg  34.8706 -6.46715 -5.07752
RightFoot  -14.6257 0.353317 15.7167
RightToes  -1.39699e-009 0 -3.6325e-017
Spine  15.1679 -0.21355 -3.04401
Spine1  21.3033 -0.82538 0.874288
HEad  -20.0136 31.1058 -14.8387
LeftShoulder1  1.42732 -2.12519 -18.8077
LeftArm  10.3445 12.9275 -61.7285
LeftForeArm  91.4324 -79.7808 -93.7102
LeftHand  -3.18358 -5.17616 34.2931
RightShoulder  0.611386 -0.29726 12.0608
RightArm  5.75233 -4.93253 60.0206
RightForeArm  160.847 63.1965 159.566
RightHand  -1.3115 5.68162 -13.9921
LeftUpLeg  -14.8142 -8.09673 11.2884
LeftLeg  35.5986 -0.244255 0.176922
LeftFoot  -14.5085 -0.381035 -16.8153
LeftToes  3.40148e-010 1.80944e-010 1.01921e-010
